<svg width="22" height="24" viewBox="0 0 22 24" fill="none" xmlns="http://www.w3.org/2000/svg">
<g clip-path="url(#clip0_892_226)">
<path d="M12 0H10V2H12V0Z" fill="white"/>
<path d="M4 20H2V22H4V20Z" fill="white"/>
<path d="M18 20H20V22H18V20Z" fill="white"/>
<path d="M10 18H12V20H10V18Z" fill="white"/>
<path d="M12 20H14V22H12V20Z" fill="white"/>
<path d="M14 22H16V24H14V22Z" fill="white"/>
<path d="M6 22H8V24H6V22Z" fill="white"/>
<path d="M8 20H10V22H8V20Z" fill="white"/>
<path d="M4 18H2V20H4V18Z" fill="white"/>
<path d="M18 18H20V20H18V18Z" fill="white"/>
<path d="M4 16H2V18H4V16Z" fill="white"/>
<path d="M18 16H20V18H18V16Z" fill="white"/>
<path d="M6 16H4V18H6V16Z" fill="white"/>
<path d="M16 16H18V18H16V16Z" fill="white"/>
<path d="M6 14H4V16H6V14Z" fill="white"/>
<path d="M16 14H18V16H16V14Z" fill="white"/>
<path d="M2 10H0V12H2V10Z" fill="white"/>
<path d="M20 10H22V12H20V10Z" fill="white"/>
<path d="M4 12H2V14H4V12Z" fill="white"/>
<path d="M18 12H20V14H18V12Z" fill="white"/>
<path d="M2 8H0V10H2V8Z" fill="white"/>
<path d="M20 8H22V10H20V8Z" fill="white"/>
<path d="M4 8H2V10H4V8Z" fill="white"/>
<path d="M18 8H20V10H18V8Z" fill="#616161"/>
<path d="M18 8H20V10H18V8Z" fill="white"/>
<path d="M6 8H4V10H6V8Z" fill="white"/>
<path d="M16 8H18V10H16V8Z" fill="white"/>
<path d="M8 8H6V10H8V8Z" fill="white"/>
<path d="M14 8H16V10H14V8Z" fill="white"/>
<path d="M8 6H6V8H8V6Z" fill="white"/>
<path d="M14 6H16V8H14V6Z" fill="white"/>
<path d="M10 4H8V6H10V4Z" fill="white"/>
<path d="M12 4H14V6H12V4Z" fill="white"/>
<path d="M10 2H8V4H10V2Z" fill="white"/>
<path d="M12 2H14V4H12V2Z" fill="white"/>
<path d="M6 22H4V24H6V22Z" fill="white"/>
<path d="M18 22H16V24H18V22Z" fill="white"/>
<path d="M4 22H2V24H4V22Z" fill="white"/>
<path d="M20 22H18V24H20V22Z" fill="white"/>
</g>
<defs>
<clipPath id="clip0_892_226">
<rect width="22" height="24" fill="white"/>
</clipPath>
</defs>
</svg>
