<svg width="22" height="24" viewBox="0 0 22 24" fill="none" xmlns="http://www.w3.org/2000/svg"><rect x="10" width="2" height="2" fill="black"/><rect x="2" y="20" width="2" height="2" fill="black"/><rect width="2" height="2" transform="matrix(-1 0 0 1 20 20)" fill="black"/><rect width="2" height="2" transform="matrix(-1 0 0 1 12 18)" fill="black"/><rect width="2" height="2" transform="matrix(-1 0 0 1 14 20)" fill="black"/><rect width="2" height="2" transform="matrix(-1 0 0 1 16 22)" fill="black"/><rect width="2" height="2" transform="matrix(-1 0 0 1 8 22)" fill="black"/><rect width="2" height="2" transform="matrix(-1 0 0 1 10 20)" fill="black"/><rect x="2" y="18" width="2" height="2" fill="black"/><rect width="2" height="2" transform="matrix(-1 0 0 1 20 18)" fill="black"/><rect x="2" y="16" width="2" height="2" fill="black"/><rect width="2" height="2" transform="matrix(-1 0 0 1 20 16)" fill="black"/><rect x="4" y="16" width="2" height="2" fill="black"/><rect width="2" height="2" transform="matrix(-1 0 0 1 18 16)" fill="black"/><rect x="4" y="14" width="2" height="2" fill="black"/><rect width="2" height="2" transform="matrix(-1 0 0 1 18 14)" fill="black"/><rect y="10" width="2" height="2" fill="black"/><rect width="2" height="2" transform="matrix(-1 0 0 1 22 10)" fill="black"/><rect x="2" y="12" width="2" height="2" fill="black"/><rect width="2" height="2" transform="matrix(-1 0 0 1 20 12)" fill="black"/><rect y="8" width="2" height="2" fill="black"/><rect width="2" height="2" transform="matrix(-1 0 0 1 22 8)" fill="black"/><rect x="2" y="8" width="2" height="2" fill="black"/><rect width="2" height="2" transform="matrix(-1 0 0 1 20 8)" fill="#616161"/><rect width="2" height="2" transform="matrix(-1 0 0 1 20 8)" fill="black"/><rect x="4" y="8" width="2" height="2" fill="black"/><rect width="2" height="2" transform="matrix(-1 0 0 1 18 8)" fill="black"/><rect x="6" y="8" width="2" height="2" fill="black"/><rect width="2" height="2" transform="matrix(-1 0 0 1 16 8)" fill="black"/><rect x="6" y="6" width="2" height="2" fill="black"/><rect width="2" height="2" transform="matrix(-1 0 0 1 16 6)" fill="black"/><rect x="8" y="4" width="2" height="2" fill="black"/><rect width="2" height="2" transform="matrix(-1 0 0 1 14 4)" fill="black"/><rect x="8" y="2" width="2" height="2" fill="black"/><rect width="2" height="2" transform="matrix(-1 0 0 1 14 2)" fill="black"/><rect x="4" y="22" width="2" height="2" fill="black"/><rect x="16" y="22" width="2" height="2" fill="black"/><rect x="2" y="22" width="2" height="2" fill="black"/><rect x="18" y="22" width="2" height="2" fill="black"/></svg>